<svg version="1.1" xmlns="http://www.w3.org/2000/svg" viewBox="0 0 2683.5 1984.333320617675" width="2683.5" height="1984.333320617675" filter="invert(93%) hue-rotate(180deg)">
  <!-- svg-source:excalidraw -->
  
  <defs>
    <style class="style-fonts">
      @font-face {
        font-family: "Virgil";
        src: url("https://excalidraw.com/Virgil.woff2");
      }
      @font-face {
        font-family: "Cascadia";
        src: url("https://excalidraw.com/Cascadia.woff2");
      }
      @font-face {
        font-family: "Assistant";
        src: url("https://excalidraw.com/Assistant-Regular.woff2");
      }
    </style>
    
  </defs>
  <rect x="0" y="0" width="2683.5" height="1984.333320617675" fill="#ffffff"></rect><g stroke-linecap="round" transform="translate(1095 241.16665649414045) rotate(0 140 41.5)"><path d="M20.75 0 C91.09 -1.42, 163.11 -1.57, 259.25 0 M20.75 0 C74.49 -0.84, 126 0.12, 259.25 0 M259.25 0 C274.18 0.51, 281.37 6.9, 280 20.75 M259.25 0 C274.8 -1.35, 280.77 5.83, 280 20.75 M280 20.75 C281.43 28.93, 281.97 39.53, 280 62.25 M280 20.75 C280.01 35.33, 279.05 49.89, 280 62.25 M280 62.25 C281.16 75.24, 273.71 83.8, 259.25 83 M280 62.25 C279.34 75.04, 271.09 82.59, 259.25 83 M259.25 83 C165.49 83.82, 70.08 83.52, 20.75 83 M259.25 83 C185.47 82.19, 112.49 82.2, 20.75 83 M20.75 83 C6.84 82.26, -0.9 76.33, 0 62.25 M20.75 83 C4.65 84.5, 1.56 76.27, 0 62.25 M0 62.25 C-1.19 51.09, -0.79 41.74, 0 20.75 M0 62.25 C0.09 50.86, -1.04 40.68, 0 20.75 M0 20.75 C0.13 5.6, 8.69 0.34, 20.75 0 M0 20.75 C1.49 6.65, 6.65 1.6, 20.75 0" stroke="#1e1e1e" stroke-width="2" fill="none"></path></g><g transform="translate(1178.0480194091797 260.16665649414045) rotate(0 56.95198059082031 22.5)"><text x="56.95198059082031" y="0" font-family="Virgil, Segoe UI Emoji" font-size="36px" fill="#1e1e1e" text-anchor="middle" style="white-space: pre;" direction="ltr" dominant-baseline="text-before-edge">Window</text></g><g stroke-linecap="round"><g transform="translate(1241 327.66665649414045) rotate(0 1 45.5)"><path d="M0.76 -0.48 C0.78 14.9, 0.92 76.86, 1.26 92.13 M-0.3 -1.77 C0.01 13.31, 3.12 74.88, 3.58 90.6" stroke="#1e1e1e" stroke-width="2" fill="none"></path></g><g transform="translate(1241 327.66665649414045) rotate(0 1 45.5)"><path d="M-5.92 67.47 C-3.01 75.27, 3.4 86.91, 3.58 90.6 M-5.92 67.47 C-2.6 74.31, 0.35 82.39, 3.58 90.6" stroke="#1e1e1e" stroke-width="2" fill="none"></path></g><g transform="translate(1241 327.66665649414045) rotate(0 1 45.5)"><path d="M11.16 66.78 C7.36 74.95, 7.05 86.87, 3.58 90.6 M11.16 66.78 C9.14 73.76, 6.73 82.06, 3.58 90.6" stroke="#1e1e1e" stroke-width="2" fill="none"></path></g></g><mask></mask><g stroke-linecap="round" transform="translate(1102 420.16665649414045) rotate(0 140 41.5)"><path d="M20.75 0 C92.71 -0.08, 165.66 0.38, 259.25 0 M20.75 0 C93.4 -1.73, 167.39 -0.69, 259.25 0 M259.25 0 C274.47 -0.35, 279.32 7.95, 280 20.75 M259.25 0 C272.64 1.43, 282.22 8.39, 280 20.75 M280 20.75 C278.7 31.65, 278.68 44.29, 280 62.25 M280 20.75 C280.7 32.47, 280.11 45.45, 280 62.25 M280 62.25 C278.33 74.63, 271.35 83.56, 259.25 83 M280 62.25 C278.04 77.92, 272.81 84.22, 259.25 83 M259.25 83 C201.66 83.44, 145.31 83.33, 20.75 83 M259.25 83 C208.6 81.56, 158.42 81.23, 20.75 83 M20.75 83 C6.16 81.26, -1.3 74.9, 0 62.25 M20.75 83 C8.02 84.9, 1.75 75.07, 0 62.25 M0 62.25 C-0.18 45.74, -0.64 29.41, 0 20.75 M0 62.25 C-0.32 53.13, -0.54 43.65, 0 20.75 M0 20.75 C-0.73 5.08, 7.61 -0.39, 20.75 0 M0 20.75 C-0.68 6.72, 6.38 0.77, 20.75 0" stroke="#1e1e1e" stroke-width="2" fill="none"></path></g><g transform="translate(1158.9120254516602 439.16665649414045) rotate(0 83.08797454833984 22.5)"><text x="83.08797454833984" y="0" font-family="Virgil, Segoe UI Emoji" font-size="36px" fill="#1e1e1e" text-anchor="middle" style="white-space: pre;" direction="ltr" dominant-baseline="text-before-edge">Document</text></g><g stroke-linecap="round"><g transform="translate(1246.3628150911632 503.4888776614143) rotate(0 1 45.5)"><path d="M1.09 0.14 C1.63 15.34, 2.88 74.97, 2.84 90.07 M0.21 -0.83 C0.7 14.58, 1.85 75.66, 2.34 91.12" stroke="#1e1e1e" stroke-width="2" fill="none"></path></g><g transform="translate(1246.3628150911632 503.4888776614143) rotate(0 1 45.5)"><path d="M-6.79 67.85 C-4.31 75.41, -3.65 78.35, 2.34 91.12 M-6.79 67.85 C-5.25 74.3, -1.37 80.78, 2.34 91.12" stroke="#1e1e1e" stroke-width="2" fill="none"></path></g><g transform="translate(1246.3628150911632 503.4888776614143) rotate(0 1 45.5)"><path d="M10.31 67.43 C8.2 75.26, 4.28 78.31, 2.34 91.12 M10.31 67.43 C7.04 74.09, 6.12 80.69, 2.34 91.12" stroke="#1e1e1e" stroke-width="2" fill="none"></path></g></g><mask></mask><g stroke-linecap="round" transform="translate(1108 587.1666564941404) rotate(0 140 41.5)"><path d="M20.75 0 C71 0.96, 123.03 -1.71, 259.25 0 M20.75 0 C113.8 2.19, 208.22 0.98, 259.25 0 M259.25 0 C274.43 0.49, 280.63 7.18, 280 20.75 M259.25 0 C272.1 -1.75, 278.17 4.75, 280 20.75 M280 20.75 C278.74 28.91, 281.24 41.86, 280 62.25 M280 20.75 C279.94 34.83, 280.74 48.7, 280 62.25 M280 62.25 C281.92 77.76, 273.69 84.92, 259.25 83 M280 62.25 C280.05 77.2, 271.41 81.95, 259.25 83 M259.25 83 C204.18 82.04, 150.48 82.42, 20.75 83 M259.25 83 C186.36 84.78, 112.59 84.26, 20.75 83 M20.75 83 C8.22 84.17, -1.66 75.78, 0 62.25 M20.75 83 C8.06 83.08, 0.98 74.2, 0 62.25 M0 62.25 C0.7 47.91, -0.42 32.91, 0 20.75 M0 62.25 C0.1 53.72, 0.57 44.74, 0 20.75 M0 20.75 C0.95 7.4, 5.24 -0.61, 20.75 0 M0 20.75 C0.4 6.97, 5 -1.26, 20.75 0" stroke="#1e1e1e" stroke-width="2" fill="none"></path></g><g transform="translate(1199.0400085449219 606.1666564941404) rotate(0 48.959991455078125 22.5)"><text x="48.959991455078125" y="0" font-family="Virgil, Segoe UI Emoji" font-size="36px" fill="#1e1e1e" text-anchor="middle" style="white-space: pre;" direction="ltr" dominant-baseline="text-before-edge">HTML</text></g><g stroke-linecap="round"><g transform="translate(1196.473297709605 675.5186441506444) rotate(0 -315.99999999999994 145.49999999999994)"><path d="M-0.7 -0.97 C-106.05 47.44, -527.86 242.8, -632.9 291.53 M1.13 1.13 C-103.77 49.71, -525.29 241.66, -630.66 289.69" stroke="#1e1e1e" stroke-width="2" fill="none"></path></g><g transform="translate(1196.473297709605 675.5186441506444) rotate(0 -315.99999999999994 145.49999999999994)"><path d="M-612.83 272.17 C-618.46 274.64, -620.1 282, -630.66 289.69 M-612.83 272.17 C-618.81 278.3, -623.99 284.11, -630.66 289.69" stroke="#1e1e1e" stroke-width="2" fill="none"></path></g><g transform="translate(1196.473297709605 675.5186441506444) rotate(0 -315.99999999999994 145.49999999999994)"><path d="M-605.74 287.73 C-613.15 286.53, -616.45 290.27, -630.66 289.69 M-605.74 287.73 C-614.04 288.67, -621.61 289.25, -630.66 289.69" stroke="#1e1e1e" stroke-width="2" fill="none"></path></g></g><mask></mask><g stroke-linecap="round"><g transform="translate(1313.8855121810361 673.3871350061147) rotate(0 367 144.153147033629)"><path d="M0.28 -0.85 C58.2 22.65, 224.64 92.62, 346.84 140.99 C469.04 189.36, 669.06 265.03, 733.46 289.39 M-1.04 1.32 C56.86 25, 224.09 94.71, 346.33 142.43 C468.57 190.14, 667.94 263.42, 732.41 287.61" stroke="#1e1e1e" stroke-width="2" fill="none"></path></g><g transform="translate(1313.8855121810361 673.3871350061147) rotate(0 367 144.153147033629)"><path d="M707.42 287.43 C712.04 288.81, 719.16 286.57, 732.41 287.61 M707.42 287.43 C717.86 287.24, 727.62 288.81, 732.41 287.61" stroke="#1e1e1e" stroke-width="2" fill="none"></path></g><g transform="translate(1313.8855121810361 673.3871350061147) rotate(0 367 144.153147033629)"><path d="M713.38 271.4 C716.56 276.67, 722.25 278.29, 732.41 287.61 M713.38 271.4 C721.4 277.4, 728.84 285.23, 732.41 287.61" stroke="#1e1e1e" stroke-width="2" fill="none"></path></g></g><mask></mask><g stroke-linecap="round" transform="translate(418.0000000000001 980.4999999999998) rotate(0 140 41.5)"><path d="M20.75 0 C95.31 0.28, 171.47 -0.56, 259.25 0 M20.75 0 C98.57 0.26, 175.2 -1.27, 259.25 0 M259.25 0 C274.5 0.64, 278.02 8.25, 280 20.75 M259.25 0 C271.14 -0.01, 281.4 6.23, 280 20.75 M280 20.75 C281.17 31.21, 280.59 43.42, 280 62.25 M280 20.75 C278.9 33.95, 279.11 48.78, 280 62.25 M280 62.25 C281.56 76.72, 272.03 81.05, 259.25 83 M280 62.25 C278.22 75.92, 271.3 82.79, 259.25 83 M259.25 83 C174.33 80.69, 90.82 83.28, 20.75 83 M259.25 83 C183.01 83.01, 107.55 83.52, 20.75 83 M20.75 83 C8.45 82.79, -1.56 76.1, 0 62.25 M20.75 83 C7.65 85.07, -1.74 74.13, 0 62.25 M0 62.25 C0.69 44.08, -0.53 29.3, 0 20.75 M0 62.25 C1.01 48.54, 0.49 34.46, 0 20.75 M0 20.75 C0.56 6.7, 7.64 1.06, 20.75 0 M0 20.75 C-2 5.33, 4.73 -0.62, 20.75 0" stroke="#1e1e1e" stroke-width="2" fill="none"></path></g><g transform="translate(515.9880142211915 999.4999999999998) rotate(0 42.011985778808594 22.5)"><text x="42.011985778808594" y="0" font-family="Virgil, Segoe UI Emoji" font-size="36px" fill="#1e1e1e" text-anchor="middle" style="white-space: pre;" direction="ltr" dominant-baseline="text-before-edge">Head</text></g><g stroke-linecap="round" transform="translate(1908 970.4999999999998) rotate(0 140 41.5)"><path d="M20.75 0 C99.3 1.07, 175.47 -1.98, 259.25 0 M20.75 0 C109.78 1.27, 197.7 2.49, 259.25 0 M259.25 0 C272.49 -0.25, 279.5 4.98, 280 20.75 M259.25 0 C274.54 -1.69, 280.8 5.56, 280 20.75 M280 20.75 C278.02 33.22, 278.43 48.97, 280 62.25 M280 20.75 C279.16 35.66, 280.06 51.35, 280 62.25 M280 62.25 C279.82 77.16, 271.21 82.32, 259.25 83 M280 62.25 C279.26 73.85, 273.53 84.33, 259.25 83 M259.25 83 C182.61 82.42, 107.52 83.44, 20.75 83 M259.25 83 C169.43 81.71, 80.35 80.81, 20.75 83 M20.75 83 C5.22 84.83, 0.43 77.13, 0 62.25 M20.75 83 C7.81 80.8, -0.5 75.58, 0 62.25 M0 62.25 C1.98 48.46, 0.95 33.92, 0 20.75 M0 62.25 C0.57 47.77, -0.64 34.07, 0 20.75 M0 20.75 C-0.54 5.27, 8.54 1.32, 20.75 0 M0 20.75 C0.18 5.33, 5.84 -2.11, 20.75 0" stroke="#1e1e1e" stroke-width="2" fill="none"></path></g><g transform="translate(2006.2580108642578 989.4999999999998) rotate(0 41.74198913574219 22.5)"><text x="41.74198913574219" y="0" font-family="Virgil, Segoe UI Emoji" font-size="36px" fill="#1e1e1e" text-anchor="middle" style="white-space: pre;" direction="ltr" dominant-baseline="text-before-edge">Body</text></g><g stroke-linecap="round"><g transform="translate(554.0000000000001 1068.6666564941404) rotate(0 0 76)"><path d="M-0.2 1.03 C-0.36 26.32, -0.14 126.69, -0.01 151.89 M-1.76 0.52 C-2.16 26, -1.28 127.84, -0.96 153.38" stroke="#1e1e1e" stroke-width="2" fill="none"></path></g><g transform="translate(554.0000000000001 1068.6666564941404) rotate(0 0 76)"><path d="M-9.74 129.97 C-4.68 138.81, -3.26 148.66, -0.96 153.38 M-9.74 129.97 C-7.44 137.79, -3.35 145.56, -0.96 153.38" stroke="#1e1e1e" stroke-width="2" fill="none"></path></g><g transform="translate(554.0000000000001 1068.6666564941404) rotate(0 0 76)"><path d="M7.36 129.8 C5.96 138.68, 0.93 148.59, -0.96 153.38 M7.36 129.8 C4.13 137.6, 2.7 145.42, -0.96 153.38" stroke="#1e1e1e" stroke-width="2" fill="none"></path></g></g><mask></mask><g stroke-linecap="round"><g transform="translate(156.00000000000023 1255.9999999999998) rotate(0 384.99999999999994 -13)"><path d="M0.4 -0.09 C82.47 -1.03, 364 -3.87, 492.27 -5.51 C620.53 -7.14, 723.96 -6.42, 770 -9.88 C816.04 -13.34, 769.02 -23.68, 768.52 -26.28 M-0.84 -1.18 C81.09 -2.49, 363.12 -6.15, 491.46 -7.37 C619.81 -8.59, 722.97 -5.51, 769.23 -8.5 C815.49 -11.49, 769.13 -22.6, 769.04 -25.32" stroke="#1e1e1e" stroke-width="2" fill="none"></path></g></g><mask></mask><g transform="translate(920 10) rotate(0 110.88494873046875 61.012341991650494)"><text x="0" y="0" font-family="Virgil, Segoe UI Emoji" font-size="97.6197471866408px" fill="#1e1e1e" text-anchor="start" style="white-space: pre;" direction="ltr" dominant-baseline="text-before-edge">DOM</text></g><g transform="translate(1164 30) rotate(0 291.7043151855469 34.500000000000014)"><text x="0" y="0" font-family="Virgil, Segoe UI Emoji" font-size="55.200000000000024px" fill="#1e1e1e" text-anchor="start" style="white-space: pre;" direction="ltr" dominant-baseline="text-before-edge">OF a basic html page</text></g><g stroke-linecap="round"><g transform="translate(152.93614830630986 1255.049694333244) rotate(0 0 76)"><path d="M-0.99 -0.83 C-1.1 24.63, -1.09 126.74, -0.92 152.15 M0.7 1.35 C0.97 27.08, 1.54 128.54, 1.3 153.76" stroke="#1e1e1e" stroke-width="2" fill="none"></path></g><g transform="translate(152.93614830630986 1255.049694333244) rotate(0 0 76)"><path d="M-7.23 130.26 C-6.34 135.39, -2.31 143.59, 1.3 153.76 M-7.23 130.26 C-4.4 137.43, -3.35 143.43, 1.3 153.76" stroke="#1e1e1e" stroke-width="2" fill="none"></path></g><g transform="translate(152.93614830630986 1255.049694333244) rotate(0 0 76)"><path d="M9.87 130.27 C5.96 135.26, 5.18 143.46, 1.3 153.76 M9.87 130.27 C8.15 137.37, 4.65 143.36, 1.3 153.76" stroke="#1e1e1e" stroke-width="2" fill="none"></path></g></g><mask></mask><g stroke-linecap="round"><g transform="translate(930.9361483063097 1255.049694333244) rotate(0 0 76.00000000000006)"><path d="M-0.38 -0.06 C-0.37 25.19, 0.44 127.16, 0.54 152.45 M1.62 -1.13 C1.48 23.67, 0.22 124.91, -0.13 150.56" stroke="#1e1e1e" stroke-width="2" fill="none"></path></g><g transform="translate(930.9361483063097 1255.049694333244) rotate(0 0 76.00000000000006)"><path d="M-8.38 126.96 C-5.49 135.87, -1.86 143.26, -0.13 150.56 M-8.38 126.96 C-6.81 133.78, -4.97 139.47, -0.13 150.56" stroke="#1e1e1e" stroke-width="2" fill="none"></path></g><g transform="translate(930.9361483063097 1255.049694333244) rotate(0 0 76.00000000000006)"><path d="M8.72 127.18 C5.81 135.96, 3.66 143.27, -0.13 150.56 M8.72 127.18 C5.66 133.94, 2.87 139.57, -0.13 150.56" stroke="#1e1e1e" stroke-width="2" fill="none"></path></g></g><mask></mask><g stroke-linecap="round" transform="translate(16.000000000000114 1422.4999999999998) rotate(0 140 41.5)"><path d="M20.75 0 C84.59 0.81, 148.48 -0.35, 259.25 0 M20.75 0 C81.53 0.95, 140.88 1.34, 259.25 0 M259.25 0 C273.53 -1.77, 278.54 8.29, 280 20.75 M259.25 0 C272.83 1.32, 281.8 6.6, 280 20.75 M280 20.75 C281.35 32.52, 281 43.84, 280 62.25 M280 20.75 C281.01 35.22, 280.06 49.44, 280 62.25 M280 62.25 C278.83 77.2, 273.25 82.06, 259.25 83 M280 62.25 C281.37 76.06, 271.46 82.87, 259.25 83 M259.25 83 C205.49 84.51, 155.92 84.59, 20.75 83 M259.25 83 C168.75 82, 76.96 83.28, 20.75 83 M20.75 83 C6.95 84.74, 1.15 75.11, 0 62.25 M20.75 83 C5.41 83.57, -1.12 76.72, 0 62.25 M0 62.25 C0 49.93, -0.57 41.2, 0 20.75 M0 62.25 C0.14 47.41, 0.34 30.05, 0 20.75 M0 20.75 C1.79 7.01, 8.13 1.64, 20.75 0 M0 20.75 C-1.42 6.49, 5.74 1.61, 20.75 0" stroke="#1e1e1e" stroke-width="2" fill="none"></path></g><g transform="translate(112.58401489257824 1441.4999999999998) rotate(0 43.415985107421875 22.5)"><text x="43.415985107421875" y="0" font-family="Virgil, Segoe UI Emoji" font-size="36px" fill="#1e1e1e" text-anchor="middle" style="white-space: pre;" direction="ltr" dominant-baseline="text-before-edge">meta</text></g><g stroke-linecap="round" transform="translate(792 1426.4999999999998) rotate(0 140 41.5)"><path d="M20.75 0 C81.88 0.42, 140.15 1.2, 259.25 0 M20.75 0 C98.18 1.37, 174.93 2.11, 259.25 0 M259.25 0 C272.81 -0.66, 280.53 7.5, 280 20.75 M259.25 0 C274.51 0.78, 281.02 7.96, 280 20.75 M280 20.75 C281.94 35.33, 280.05 49.43, 280 62.25 M280 20.75 C279.76 31.37, 280.22 40.09, 280 62.25 M280 62.25 C279.88 74.47, 274.78 82.95, 259.25 83 M280 62.25 C278.05 78.24, 274.94 85.26, 259.25 83 M259.25 83 C169.33 81.45, 76.84 84.01, 20.75 83 M259.25 83 C186.93 83.6, 115.64 83.74, 20.75 83 M20.75 83 C7.47 82.22, 0.18 77.05, 0 62.25 M20.75 83 C6.96 81.29, -0.62 76.79, 0 62.25 M0 62.25 C-0.03 48.38, 0.36 29.47, 0 20.75 M0 62.25 C0.8 45.47, -0.21 29.41, 0 20.75 M0 20.75 C1.4 7.28, 5.5 -0.62, 20.75 0 M0 20.75 C-2.12 7.34, 6.31 -0.59, 20.75 0" stroke="#1e1e1e" stroke-width="2" fill="none"></path></g><g transform="translate(893.1380233764648 1445.4999999999998) rotate(0 38.861976623535156 22.5)"><text x="38.861976623535156" y="0" font-family="Virgil, Segoe UI Emoji" font-size="36px" fill="#1e1e1e" text-anchor="middle" style="white-space: pre;" direction="ltr" dominant-baseline="text-before-edge">title</text></g><g stroke-linecap="round"><g transform="translate(147.85144352688894 1513.5338158868624) rotate(0 0 76)"><path d="M0.89 0.78 C0.66 26.11, -0.44 127.3, -0.69 152.39 M-0.11 0.14 C0.01 25.06, 1.92 125.11, 1.66 150.47" stroke="#1e1e1e" stroke-width="2" fill="none"></path></g><g transform="translate(147.85144352688894 1513.5338158868624) rotate(0 0 76)"><path d="M-7.04 127.03 C-2.59 134.1, -0.16 142.54, 1.66 150.47 M-7.04 127.03 C-4.94 133.56, -2.69 138.16, 1.66 150.47" stroke="#1e1e1e" stroke-width="2" fill="none"></path></g><g transform="translate(147.85144352688894 1513.5338158868624) rotate(0 0 76)"><path d="M10.06 126.93 C8.47 134.16, 4.85 142.64, 1.66 150.47 M10.06 126.93 C8 133.4, 6.1 138.03, 1.66 150.47" stroke="#1e1e1e" stroke-width="2" fill="none"></path></g></g><mask></mask><g stroke-linecap="round"><g transform="translate(941.8514435268887 1509.5338158868624) rotate(0 0 76)"><path d="M0.24 0.71 C0.27 26.03, 0.42 127.2, 0.43 152.51 M-1.09 0.04 C-1.2 24.95, -0.42 125.58, -0.29 150.65" stroke="#1e1e1e" stroke-width="2" fill="none"></path></g><g transform="translate(941.8514435268887 1509.5338158868624) rotate(0 0 76)"><path d="M-9 127.21 C-4.91 135.37, -2.49 142.6, -0.29 150.65 M-9 127.21 C-6.84 136.19, -2.1 142.32, -0.29 150.65" stroke="#1e1e1e" stroke-width="2" fill="none"></path></g><g transform="translate(941.8514435268887 1509.5338158868624) rotate(0 0 76)"><path d="M8.11 127.1 C6.74 135.33, 3.72 142.6, -0.29 150.65 M8.11 127.1 C4.38 136.16, 3.24 142.32, -0.29 150.65" stroke="#1e1e1e" stroke-width="2" fill="none"></path></g></g><mask></mask><g stroke-linecap="round" transform="translate(10 1682.4999999999998) rotate(0 140 41.5)"><path d="M20.75 0 C87.52 0.19, 153.99 2.02, 259.25 0 M20.75 0 C94.35 -0.17, 169.91 -0.16, 259.25 0 M259.25 0 C273.23 0.78, 280.44 5.03, 280 20.75 M259.25 0 C270.95 0.23, 279.99 6.48, 280 20.75 M280 20.75 C282.02 35.46, 278.83 49.79, 280 62.25 M280 20.75 C279.12 31.45, 280.49 40.07, 280 62.25 M280 62.25 C278.15 75.8, 273.95 81.42, 259.25 83 M280 62.25 C278.22 78.17, 273.66 84.19, 259.25 83 M259.25 83 C178.23 84.3, 100.02 85.74, 20.75 83 M259.25 83 C184.86 81.7, 109.63 81.59, 20.75 83 M20.75 83 C6.13 83.04, -0.64 76.87, 0 62.25 M20.75 83 C7.33 80.82, 1.46 76.16, 0 62.25 M0 62.25 C-1.5 53.04, -1.12 43.41, 0 20.75 M0 62.25 C0.95 46.45, -0.57 29.03, 0 20.75 M0 20.75 C1.08 6.13, 5.49 1.91, 20.75 0 M0 20.75 C1.9 8.97, 6.18 0.36, 20.75 0" stroke="#1e1e1e" stroke-width="2" fill="none"></path></g><g transform="translate(66.58802795410156 1701.4999999999998) rotate(0 83.41197204589844 22.5)"><text x="83.41197204589844" y="0" font-family="Virgil, Segoe UI Emoji" font-size="36px" fill="#1e1e1e" text-anchor="middle" style="white-space: pre;" direction="ltr" dominant-baseline="text-before-edge">attribute</text></g><g stroke-linecap="round" transform="translate(803.9999999999998 1678.4999999999998) rotate(0 140 50)"><path d="M25 0 C114.67 1.4, 207.52 0.3, 255 0 M25 0 C79.27 -1.42, 135.83 -1.37, 255 0 M255 0 C271.7 -0.75, 280.76 10.17, 280 25 M255 0 C273.21 2.29, 279.74 6.29, 280 25 M280 25 C281.72 43.02, 281.74 59.9, 280 75 M280 25 C279.58 38.66, 278.85 53.09, 280 75 M280 75 C280.57 93.22, 270.58 99.66, 255 100 M280 75 C280.12 89.61, 270.5 101.1, 255 100 M255 100 C203.28 99.91, 153.37 100.14, 25 100 M255 100 C162.71 101.41, 72.58 102, 25 100 M25 100 C6.98 101.19, -1.96 91.79, 0 75 M25 100 C6.79 101.19, 0.68 91.1, 0 75 M0 75 C-0.96 61.29, -1.98 46.81, 0 25 M0 75 C-0.03 63.29, 0.87 51.61, 0 25 M0 25 C1.22 6.5, 8.5 -0.48, 25 0 M0 25 C0.98 9.78, 7.31 -0.75, 25 0" stroke="#1e1e1e" stroke-width="2" fill="none"></path></g><g transform="translate(850.3100357055662 1683.4999999999998) rotate(0 93.6899642944336 45)"><text x="93.6899642944336" y="0" font-family="Virgil, Segoe UI Emoji" font-size="36px" fill="#1e1e1e" text-anchor="middle" style="white-space: pre;" direction="ltr" dominant-baseline="text-before-edge">text </text><text x="93.6899642944336" y="45" font-family="Virgil, Segoe UI Emoji" font-size="36px" fill="#1e1e1e" text-anchor="middle" style="white-space: pre;" direction="ltr" dominant-baseline="text-before-edge">node/value</text></g><g stroke-linecap="round"><g transform="translate(1672.5000000000002 1455.2215750450266) rotate(0 384.9999999999999 -13)"><path d="M1.16 -0.8 C83.38 -1.87, 364.1 -5.2, 492.36 -6.58 C620.61 -7.97, 724.61 -6.07, 770.68 -9.11 C816.75 -12.16, 769.04 -21.89, 768.76 -24.85 M0.31 1.39 C82.48 0.49, 363.27 -3.29, 491.6 -5.35 C619.93 -7.42, 723.97 -7.42, 770.27 -10.99 C816.57 -14.57, 769.77 -24.15, 769.41 -26.8" stroke="#1e1e1e" stroke-width="2" fill="none"></path></g></g><mask></mask><g stroke-linecap="round"><g transform="translate(1669.4361483063099 1454.2712693782707) rotate(0 1.8107437433900486 76)"><path d="M0.36 -0.58 C0.88 25.03, 3.63 127.26, 4.3 152.89 M-0.91 1.72 C-0.59 27.08, 2.89 126.28, 3.71 151.23" stroke="#1e1e1e" stroke-width="2" fill="none"></path></g><g transform="translate(1669.4361483063099 1454.2712693782707) rotate(0 1.8107437433900486 76)"><path d="M-5.63 128.04 C-3.06 138.33, 3.1 147.67, 3.71 151.23 M-5.63 128.04 C-1.76 137.89, 1.18 147.38, 3.71 151.23" stroke="#1e1e1e" stroke-width="2" fill="none"></path></g><g transform="translate(1669.4361483063099 1454.2712693782707) rotate(0 1.8107437433900486 76)"><path d="M11.46 127.46 C7.26 138.04, 6.63 147.6, 3.71 151.23 M11.46 127.46 C8.57 137.43, 4.74 147.15, 3.71 151.23" stroke="#1e1e1e" stroke-width="2" fill="none"></path></g></g><mask></mask><g stroke-linecap="round"><g transform="translate(2447.43614830631 1454.2712693782707) rotate(0 0 76)"><path d="M0.68 0.89 C0.75 26.51, 0.71 128.11, 0.76 153.15 M-0.42 0.31 C-0.48 25.67, 0.01 126.35, 0.21 151.64" stroke="#1e1e1e" stroke-width="2" fill="none"></path></g><g transform="translate(2447.43614830631 1454.2712693782707) rotate(0 0 76)"><path d="M-8.48 128.2 C-4.25 137.15, -0.94 145.3, 0.21 151.64 M-8.48 128.2 C-7.26 134.46, -5.35 139.01, 0.21 151.64" stroke="#1e1e1e" stroke-width="2" fill="none"></path></g><g transform="translate(2447.43614830631 1454.2712693782707) rotate(0 0 76)"><path d="M8.62 128.09 C7.21 137.18, 4.88 145.37, 0.21 151.64 M8.62 128.09 C5.89 134.48, 3.86 139.06, 0.21 151.64" stroke="#1e1e1e" stroke-width="2" fill="none"></path></g></g><mask></mask><g stroke-linecap="round" transform="translate(1537.5 1621.7215750450266) rotate(0 140 41.5)"><path d="M20.75 0 C107.39 0.15, 189.66 -1.3, 259.25 0 M20.75 0 C105.95 -1.77, 192.28 -2.53, 259.25 0 M259.25 0 C274.84 -1.72, 278.89 7.61, 280 20.75 M259.25 0 C270.93 2.2, 281.62 8.28, 280 20.75 M280 20.75 C281.7 29.44, 278.85 41.41, 280 62.25 M280 20.75 C279.54 28.99, 280.46 38.9, 280 62.25 M280 62.25 C278.09 76.26, 271.93 81.17, 259.25 83 M280 62.25 C281.76 74.46, 271.68 80.77, 259.25 83 M259.25 83 C176.22 84.5, 93.12 85.27, 20.75 83 M259.25 83 C179.42 84.56, 98.66 85.26, 20.75 83 M20.75 83 C7.3 84.75, 0.32 75.8, 0 62.25 M20.75 83 C9.2 82.73, 1.34 74.32, 0 62.25 M0 62.25 C-0.79 51.05, -0.63 43.74, 0 20.75 M0 62.25 C-0.22 54.08, 0.04 44.55, 0 20.75 M0 20.75 C-0.86 7.45, 6.64 -1.72, 20.75 0 M0 20.75 C0.72 6.92, 6.04 -1.39, 20.75 0" stroke="#1e1e1e" stroke-width="2" fill="none"></path></g><g transform="translate(1663.7300033569336 1640.7215750450266) rotate(0 13.769996643066406 22.5)"><text x="13.769996643066406" y="0" font-family="Virgil, Segoe UI Emoji" font-size="36px" fill="#1e1e1e" text-anchor="middle" style="white-space: pre;" direction="ltr" dominant-baseline="text-before-edge">h1</text></g><g stroke-linecap="round" transform="translate(2308.5 1625.7215750450266) rotate(0 140 41.5)"><path d="M20.75 0 C113.5 -1.27, 205.74 -1.42, 259.25 0 M20.75 0 C94.18 0.99, 165.68 2, 259.25 0 M259.25 0 C271.21 1.92, 281.4 8.1, 280 20.75 M259.25 0 C271.99 1.87, 281.94 8.48, 280 20.75 M280 20.75 C278 30.9, 277.83 36.77, 280 62.25 M280 20.75 C279.11 30.34, 279.49 38.83, 280 62.25 M280 62.25 C281.53 74.67, 271.86 81.06, 259.25 83 M280 62.25 C281.08 76.98, 275.36 82.56, 259.25 83 M259.25 83 C195.01 84.36, 130.86 84.89, 20.75 83 M259.25 83 C189.58 85.26, 119.74 84.41, 20.75 83 M20.75 83 C8.9 82.76, 1.16 74.55, 0 62.25 M20.75 83 C5.38 84.92, 0.26 75.57, 0 62.25 M0 62.25 C-1.73 52.47, 0.69 43.02, 0 20.75 M0 62.25 C-0.4 47.68, -0.11 31.71, 0 20.75 M0 20.75 C0.63 6.92, 6.16 -1.21, 20.75 0 M0 20.75 C-0.86 7.69, 7.63 1.99, 20.75 0" stroke="#1e1e1e" stroke-width="2" fill="none"></path></g><g transform="translate(2439.626007080078 1644.7215750450266) rotate(0 8.873992919921875 22.5)"><text x="8.873992919921875" y="0" font-family="Virgil, Segoe UI Emoji" font-size="36px" fill="#1e1e1e" text-anchor="middle" style="white-space: pre;" direction="ltr" dominant-baseline="text-before-edge">p</text></g><g stroke-linecap="round"><g transform="translate(1534.794360843055 1710.2553909318892) rotate(0 0.229157908534944 72.25000000000011)"><path d="M-1.05 0.06 C-0.9 23.79, -0.44 119.57, -0.02 143.47 M0.6 -0.96 C0.63 23.4, -1.33 120.27, -1.22 144.47" stroke="#1e1e1e" stroke-width="2" fill="none"></path></g><g transform="translate(1534.794360843055 1710.2553909318892) rotate(0 0.229157908534944 72.25000000000011)"><path d="M-9.55 120.9 C-7.39 125.4, -7.35 133.18, -1.22 144.47 M-9.55 120.9 C-8.83 126.87, -5.41 131.55, -1.22 144.47" stroke="#1e1e1e" stroke-width="2" fill="none"></path></g><g transform="translate(1534.794360843055 1710.2553909318892) rotate(0 0.229157908534944 72.25000000000011)"><path d="M7.55 121.06 C5.92 125.38, 2.16 133.12, -1.22 144.47 M7.55 121.06 C4.61 127.06, 4.37 131.7, -1.22 144.47" stroke="#1e1e1e" stroke-width="2" fill="none"></path></g></g><mask></mask><g stroke-linecap="round"><g transform="translate(2459.221512229459 1709.7215750450266) rotate(0 2.1993633397905796 66.7669079434313)"><path d="M-0.48 -1.03 C0.61 21.05, 4.75 110.01, 5.45 132.5 M1.48 1.05 C2.59 23.23, 4.87 111.7, 5.06 133.5" stroke="#1e1e1e" stroke-width="2" fill="none"></path></g><g transform="translate(2459.221512229459 1709.7215750450266) rotate(0 2.1993633397905796 66.7669079434313)"><path d="M-3.94 110.17 C-3.73 116.92, -1.83 119.01, 5.06 133.5 M-3.94 110.17 C-0.45 118.49, 1.39 126.52, 5.06 133.5" stroke="#1e1e1e" stroke-width="2" fill="none"></path></g><g transform="translate(2459.221512229459 1709.7215750450266) rotate(0 2.1993633397905796 66.7669079434313)"><path d="M13.16 109.85 C9.73 116.59, 8.01 118.75, 5.06 133.5 M13.16 109.85 C10.93 118.43, 7.04 126.57, 5.06 133.5" stroke="#1e1e1e" stroke-width="2" fill="none"></path></g></g><mask></mask><g stroke-linecap="round" transform="translate(1291.5 1871.7215750450266) rotate(0 140 41.5)"><path d="M20.75 0 C81.41 -2.67, 145.52 -3.31, 259.25 0 M20.75 0 C114.76 -0.5, 210.28 -0.61, 259.25 0 M259.25 0 C271.3 -1.49, 279.72 5.23, 280 20.75 M259.25 0 C274.68 -2.15, 278.28 5.28, 280 20.75 M280 20.75 C280.28 32.74, 278.28 48.56, 280 62.25 M280 20.75 C280.21 30.66, 280.74 39.61, 280 62.25 M280 62.25 C279.44 75.24, 273.44 83.76, 259.25 83 M280 62.25 C281.38 77.95, 275.2 82.83, 259.25 83 M259.25 83 C172.19 83.65, 81.96 85.04, 20.75 83 M259.25 83 C189.97 82.17, 121.9 81.29, 20.75 83 M20.75 83 C5.39 82.72, 0.84 74.3, 0 62.25 M20.75 83 C6.35 83.73, -0.74 77.41, 0 62.25 M0 62.25 C0.62 49.78, -1.64 38.49, 0 20.75 M0 62.25 C-0.22 50.13, 0.47 38.19, 0 20.75 M0 20.75 C-0.51 6.04, 5.04 0.17, 20.75 0 M0 20.75 C0.98 8.52, 6.93 1.87, 20.75 0" stroke="#1e1e1e" stroke-width="2" fill="none"></path></g><g transform="translate(1348.0880279541016 1890.7215750450266) rotate(0 83.41197204589844 22.5)"><text x="83.41197204589844" y="0" font-family="Virgil, Segoe UI Emoji" font-size="36px" fill="#1e1e1e" text-anchor="middle" style="white-space: pre;" direction="ltr" dominant-baseline="text-before-edge">attribute</text></g><g stroke-linecap="round" transform="translate(2328 1860.2215750450266) rotate(0 140 50)"><path d="M25 0 C82.9 3.02, 138.54 1.02, 255 0 M25 0 C111.99 -1.96, 200.38 -2.05, 255 0 M255 0 C273.06 -1.87, 278.51 6.91, 280 25 M255 0 C272.05 0.6, 277.8 8.53, 280 25 M280 25 C278.13 35.9, 277.6 50.19, 280 75 M280 25 C280.21 41.52, 280.67 59.27, 280 75 M280 75 C281.2 93.29, 273.5 99.86, 255 100 M280 75 C281.64 93.43, 272.11 102.02, 255 100 M255 100 C182.07 102.93, 108.24 100.8, 25 100 M255 100 C166.17 99.45, 78.99 98.81, 25 100 M25 100 C7.84 100.63, -0.65 92.82, 0 75 M25 100 C8.19 99.54, -0.98 92.28, 0 75 M0 75 C0.44 59.92, -0.78 45.62, 0 25 M0 75 C-0.41 57.87, -1.09 41.7, 0 25 M0 25 C0.85 9.73, 8.34 1.62, 25 0 M0 25 C-0.15 9.49, 6.71 -2.18, 25 0" stroke="#1e1e1e" stroke-width="2" fill="none"></path></g><g transform="translate(2374.3100357055664 1865.2215750450266) rotate(0 93.6899642944336 45)"><text x="93.6899642944336" y="0" font-family="Virgil, Segoe UI Emoji" font-size="36px" fill="#1e1e1e" text-anchor="middle" style="white-space: pre;" direction="ltr" dominant-baseline="text-before-edge">text </text><text x="93.6899642944336" y="45" font-family="Virgil, Segoe UI Emoji" font-size="36px" fill="#1e1e1e" text-anchor="middle" style="white-space: pre;" direction="ltr" dominant-baseline="text-before-edge">node/value</text></g><g stroke-linecap="round"><g transform="translate(2054.4361483063094 1053.0496943332441) rotate(0 -0.9090969794394823 74.75000000000006)"><path d="M-0.54 -0.37 C-0.79 24.57, -2.2 125.22, -2.24 150.19 M1.37 -1.61 C1 22.93, -3.01 123.04, -3.4 148.43" stroke="#1e1e1e" stroke-width="2" fill="none"></path></g><g transform="translate(2054.4361483063094 1053.0496943332441) rotate(0 -0.9090969794394823 74.75000000000006)"><path d="M-11.27 124.7 C-9.93 129.6, -6.32 137.6, -3.4 148.43 M-11.27 124.7 C-9.59 131.32, -6.26 138.92, -3.4 148.43" stroke="#1e1e1e" stroke-width="2" fill="none"></path></g><g transform="translate(2054.4361483063094 1053.0496943332441) rotate(0 -0.9090969794394823 74.75000000000006)"><path d="M5.83 125.2 C3.15 129.91, 2.76 137.79, -3.4 148.43 M5.83 125.2 C2.45 131.64, 0.72 139.08, -3.4 148.43" stroke="#1e1e1e" stroke-width="2" fill="none"></path></g></g><mask></mask><g stroke-linecap="round" transform="translate(1911 1216.8333206176756) rotate(0 140 41.50000000000006)"><path d="M20.75 0 C83.02 -1.16, 146.44 -1.63, 259.25 0 M20.75 0 C106.48 0.08, 190.3 -0.33, 259.25 0 M259.25 0 C271.42 1.1, 281.08 7.85, 280 20.75 M259.25 0 C273.19 0.88, 281.99 6.48, 280 20.75 M280 20.75 C281.8 32.57, 281.82 42.58, 280 62.25 M280 20.75 C280.44 29.4, 279.69 39.1, 280 62.25 M280 62.25 C278.76 76.49, 274.16 84.24, 259.25 83 M280 62.25 C280.52 77, 271.74 83.67, 259.25 83 M259.25 83 C204.98 84.36, 153.85 82.03, 20.75 83 M259.25 83 C182.79 82.34, 106.14 81.86, 20.75 83 M20.75 83 C5.34 81.65, -1.31 76.83, 0 62.25 M20.75 83 C5.1 83.78, -0.5 77.29, 0 62.25 M0 62.25 C-0.48 49.62, 0.55 39.86, 0 20.75 M0 62.25 C-0.54 51.03, -1.03 39.42, 0 20.75 M0 20.75 C0.28 7.4, 7.57 -0.36, 20.75 0 M0 20.75 C-0.79 5.05, 7.7 1.04, 20.75 0" stroke="#1e1e1e" stroke-width="2" fill="none"></path></g><g transform="translate(2027.4020156860352 1235.8333206176756) rotate(0 23.597984313964844 22.500000000000057)"><text x="23.597984313964844" y="0" font-family="Virgil, Segoe UI Emoji" font-size="36px" fill="#1e1e1e" text-anchor="middle" style="white-space: pre;" direction="ltr" dominant-baseline="text-before-edge">div</text></g><g stroke-linecap="round"><g transform="translate(2054.156541685105 1300.8333206176756) rotate(0 0.9757471806850617 76.97933956848442)"><path d="M1.01 0.13 C1.28 25.61, 2.58 127.9, 2.63 153.69 M0.08 -0.85 C0.16 24.74, 2.01 129.44, 2.05 155.09" stroke="#1e1e1e" stroke-width="2" fill="none"></path></g><g transform="translate(2054.156541685105 1300.8333206176756) rotate(0 0.9757471806850617 76.97933956848442)"><path d="M-6.75 131.69 C-2.99 141.77, -0.26 148.65, 2.05 155.09 M-6.75 131.69 C-2.6 139.89, -0.38 148.48, 2.05 155.09" stroke="#1e1e1e" stroke-width="2" fill="none"></path></g><g transform="translate(2054.156541685105 1300.8333206176756) rotate(0 0.9757471806850617 76.97933956848442)"><path d="M10.35 131.51 C7.53 141.8, 3.68 148.75, 2.05 155.09 M10.35 131.51 C8 139.86, 3.72 148.52, 2.05 155.09" stroke="#1e1e1e" stroke-width="2" fill="none"></path></g></g><mask></mask><g stroke-linecap="round"><g transform="translate(2193.5 1253.3333206176756) rotate(0 100 -2.5)"><path d="M0.03 0.54 C33.67 0.01, 167.96 -3.08, 201.17 -3.88 M-1.41 -0.22 C32.23 -1.01, 166.97 -4.41, 200.84 -5.41" stroke="#1e1e1e" stroke-width="2" fill="none"></path></g><g transform="translate(2193.5 1253.3333206176756) rotate(0 100 -2.5)"><path d="M177.58 3.77 C184.21 3.48, 190.85 -1.9, 200.84 -5.41 M177.58 3.77 C185.51 1.12, 194.05 -3.35, 200.84 -5.41" stroke="#1e1e1e" stroke-width="2" fill="none"></path></g><g transform="translate(2193.5 1253.3333206176756) rotate(0 100 -2.5)"><path d="M177.12 -13.32 C183.77 -9.45, 190.52 -10.66, 200.84 -5.41 M177.12 -13.32 C185.2 -9.8, 193.91 -8.09, 200.84 -5.41" stroke="#1e1e1e" stroke-width="2" fill="none"></path></g></g><mask></mask><g stroke-linecap="round" transform="translate(2393.5 1214.3333206176753) rotate(0 140 41.49999999999994)"><path d="M20.75 0 C88.16 -1.42, 154.92 -1.54, 259.25 0 M20.75 0 C73.02 -1.11, 126.72 -2.19, 259.25 0 M259.25 0 C274.01 1.72, 279.45 5.57, 280 20.75 M259.25 0 C272.71 -1.61, 282.05 5.29, 280 20.75 M280 20.75 C279.82 29.74, 278.09 40.46, 280 62.25 M280 20.75 C279.56 30.33, 280.03 38.13, 280 62.25 M280 62.25 C280.19 76.48, 274.27 83.71, 259.25 83 M280 62.25 C278.13 74.16, 274.74 85.14, 259.25 83 M259.25 83 C185.77 82.38, 111.32 83.42, 20.75 83 M259.25 83 C200.74 81.83, 143.82 82.08, 20.75 83 M20.75 83 C6.17 83.93, 0.25 76.89, 0 62.25 M20.75 83 C7.88 81.17, -1.53 74.31, 0 62.25 M0 62.25 C0.82 47.52, -1.61 34.6, 0 20.75 M0 62.25 C-1.19 49.06, -0.11 34.35, 0 20.75 M0 20.75 C-0.14 5.11, 7.52 1.96, 20.75 0 M0 20.75 C-2.22 4.78, 4.99 -2.09, 20.75 0" stroke="#1e1e1e" stroke-width="2" fill="none"></path></g><g transform="translate(2450.0880279541016 1233.3333206176753) rotate(0 83.41197204589844 22.499999999999943)"><text x="83.41197204589844" y="0" font-family="Virgil, Segoe UI Emoji" font-size="36px" fill="#1e1e1e" text-anchor="middle" style="white-space: pre;" direction="ltr" dominant-baseline="text-before-edge">attribute</text></g><g stroke-linecap="round"><g transform="translate(1783.811447337594 1711.5779156537346) rotate(0 0.229157908534944 72.25000000000011)"><path d="M0.51 -0.02 C0.57 24.02, -0.57 120.58, -0.54 144.59 M-0.69 -1.08 C-0.18 23.15, 1.53 121.81, 1.64 146.17" stroke="#1e1e1e" stroke-width="2" fill="none"></path></g><g transform="translate(1783.811447337594 1711.5779156537346) rotate(0 0.229157908534944 72.25000000000011)"><path d="M-7.19 122.78 C-5.2 126.28, -3.05 133.48, 1.64 146.17 M-7.19 122.78 C-4.91 128.25, -1.65 134.57, 1.64 146.17" stroke="#1e1e1e" stroke-width="2" fill="none"></path></g><g transform="translate(1783.811447337594 1711.5779156537346) rotate(0 0.229157908534944 72.25000000000011)"><path d="M9.91 122.58 C8.09 126.19, 6.44 133.44, 1.64 146.17 M9.91 122.58 C7.74 128.26, 6.54 134.64, 1.64 146.17" stroke="#1e1e1e" stroke-width="2" fill="none"></path></g></g><mask></mask><g stroke-linecap="round" transform="translate(1663.5 1874.333320617675) rotate(0 140 50)"><path d="M25 0 C93.98 1.83, 161.9 1.25, 255 0 M25 0 C76.6 -0.84, 129.39 0.81, 255 0 M255 0 C272.65 -0.41, 279.38 7.9, 280 25 M255 0 C269.68 -1.13, 280.17 10.12, 280 25 M280 25 C280.87 39.81, 278.55 53.21, 280 75 M280 25 C280.07 38.54, 279.94 51.25, 280 75 M280 75 C279.12 92.69, 269.67 100.66, 255 100 M280 75 C282.2 93.47, 273.22 98.57, 255 100 M255 100 C204.77 97.67, 155.07 100.9, 25 100 M255 100 C174.99 97.37, 96.9 98.75, 25 100 M25 100 C6.8 99.07, 0.69 91.17, 0 75 M25 100 C9.93 100.62, 1.9 90.56, 0 75 M0 75 C1.4 60.93, -0.2 44.9, 0 25 M0 75 C1.04 62.51, 0.01 51.58, 0 25 M0 25 C-0.13 9.84, 9.67 0.96, 25 0 M0 25 C2.14 6.85, 10.21 2.2, 25 0" stroke="#1e1e1e" stroke-width="2" fill="none"></path></g><g transform="translate(1688.7320251464844 1879.333320617675) rotate(0 114.76797485351562 45)"><text x="114.76797485351562" y="0" font-family="Virgil, Segoe UI Emoji" font-size="36px" fill="#1e1e1e" text-anchor="middle" style="white-space: pre;" direction="ltr" dominant-baseline="text-before-edge">text node / </text><text x="114.76797485351562" y="45" font-family="Virgil, Segoe UI Emoji" font-size="36px" fill="#1e1e1e" text-anchor="middle" style="white-space: pre;" direction="ltr" dominant-baseline="text-before-edge">value</text></g></svg>